<?xml version="1.0" encoding="UTF-8" standalone="no"?>
<!-- Created with Inkscape (http://www.inkscape.org/) -->

<svg
   xmlns:dc="http://purl.org/dc/elements/1.1/"
   xmlns:cc="http://creativecommons.org/ns#"
   xmlns:rdf="http://www.w3.org/1999/02/22-rdf-syntax-ns#"
   xmlns:svg="http://www.w3.org/2000/svg"
   xmlns="http://www.w3.org/2000/svg"
   xmlns:sodipodi="http://sodipodi.sourceforge.net/DTD/sodipodi-0.dtd"
   xmlns:inkscape="http://www.inkscape.org/namespaces/inkscape"
   width="140mm"
   height="55mm"
   viewBox="0 0 140 55"
   version="1.1"
   id="svg8"
   inkscape:version="0.92.3 (2405546, 2018-03-11)"
   sodipodi:docname="python_illustration.svg">
  <defs
     id="defs2" />
  <sodipodi:namedview
     id="base"
     pagecolor="#ffffff"
     bordercolor="#666666"
     borderopacity="1.0"
     inkscape:pageopacity="0.0"
     inkscape:pageshadow="2"
     inkscape:zoom="0.98994949"
     inkscape:cx="319.69218"
     inkscape:cy="197.10988"
     inkscape:document-units="mm"
     inkscape:current-layer="g4639"
     showgrid="false"
     inkscape:window-width="1301"
     inkscape:window-height="744"
     inkscape:window-x="65"
     inkscape:window-y="24"
     inkscape:window-maximized="1"
     units="mm"
     height="50mm" />
  <metadata
     id="metadata5">
    <rdf:RDF>
      <cc:Work
         rdf:about="">
        <dc:format>image/svg+xml</dc:format>
        <dc:type
           rdf:resource="http://purl.org/dc/dcmitype/StillImage" />
        <dc:title></dc:title>
      </cc:Work>
    </rdf:RDF>
  </metadata>
  <g
     inkscape:label="レイヤー 1"
     inkscape:groupmode="layer"
     id="layer1"
     transform="translate(0,-242)">
    <g
       transform="translate(3.6564934e-8,-106.58928)"
       id="layer1-3"
       inkscape:label="レイヤー 1">
      <g
         id="g4639">
        <rect
           ry="17.639788"
           y="353.07669"
           x="7.7637873"
           height="48.108509"
           width="129.6257"
           id="rect867"
           style="fill:#ffff2e;fill-opacity:1;stroke:none;stroke-width:0.25081897;stroke-linecap:round;stroke-linejoin:round;stroke-opacity:1" />
        <path
           style="opacity:0.98999999;fill:#ed0000;fill-opacity:1;stroke:none;stroke-width:0.26458332;stroke-linecap:round;stroke-linejoin:round"
           inkscape:connector-curvature="0"
           d="m 38.65652,368.2149 c 0.60854,0.55562 0.76729,1.48167 0.68792,2.30187 -0.0794,0.84667 -0.37042,1.64042 -0.42333,2.48709 -0.0794,0.9525 0.10583,2.03729 -0.50271,2.77812 -0.42334,0.50271 -1.08479,0.68792 -1.69334,0.84667 -1.69333,0.42333 -3.386663,0.87312 -5.079996,1.29646 -0.582084,0.15875 -1.243542,0.34396 -1.561042,0.87312 -0.370417,0.55563 -0.211667,1.27 -0.105833,1.93146 0.47625,2.43417 0.502708,4.97417 0.07937,7.43479 -0.185209,1.03188 -0.820209,2.30188 -1.852084,2.06375 0.3175,-3.22791 0.423334,-6.48229 0.370417,-9.71021 -0.02646,-0.55562 -0.449792,-1.29645 -0.873125,-0.9525 -0.687917,0.60855 -1.772708,0.71438 -2.566458,0.23813 0.502708,-1.11125 1.931458,-1.34938 3.148541,-1.42875 0.15875,-2.06375 -0.05292,-4.15396 -0.608541,-6.13833 -0.291042,-0.9525 -0.635,-2.01084 -0.185209,-2.88396 1.190625,0.97896 2.936875,0.50271 4.365625,-0.0265 1.058334,-0.37042 2.116665,-0.76729 3.148535,-1.13771 1.21709,-0.44979 2.69875,-0.84667 3.65125,0.0265 m -1.37583,5.3975 c 0.0794,-1.11125 0.15875,-2.2225 0.23812,-3.33375 0.0529,-0.44979 0,-1.00542 -0.39687,-1.13771 -0.21167,-0.10583 -0.47625,-0.0265 -0.68792,0.0529 -1.905,0.635 -3.809993,1.29646 -5.688535,1.93146 -0.423333,0.13229 -0.846666,0.29104 -1.11125,0.635 -0.370416,0.44979 -0.291041,1.1377 -0.211666,1.71979 0.132291,0.9525 0.264583,1.87854 0.396875,2.80458 0.02646,0.18521 0.05292,0.39688 0.211666,0.52917 0.185209,0.15875 0.502709,0.10583 0.740834,0.0265 1.74625,-0.55563 3.518956,-1.0848 5.265206,-1.64042 0.34396,-0.10583 0.71437,-0.21167 0.9525,-0.50271 0.23812,-0.29104 0.26458,-0.68792 0.29104,-1.08479"
           id="PofPython"
           inkscape:label="#path12" />
        <path
           style="fill:#000000;stroke:none;stroke-width:0.26458332;stroke-linecap:round;stroke-linejoin:round"
           inkscape:connector-curvature="0"
           d="m 37.36772,380.36465 c 1.34937,0.10583 2.64583,0.44979 3.83646,1.05833 0.39687,0.18521 0.8202,0.44979 0.89958,0.87313 -1.71979,0.97895 -4.20688,-0.0529 -4.73604,-1.93146"
           id="path14" />
        <path
           style="fill:#000000;stroke:none;stroke-width:0.26458332;stroke-linecap:round;stroke-linejoin:round"
           inkscape:connector-curvature="0"
           d="m 107.13834,383.08529 c 0.55563,0.13229 1.03188,0.52917 1.29646,1.03188 0.52917,1.08479 -0.15875,2.56645 -1.32292,2.83104 -1.16416,0.26458 -2.43416,-0.74084 -2.43416,-1.93146 0,-1.21708 1.29646,-2.2225 2.46062,-1.93146"
           id="path16" />
        <path
           style="fill:#000000;stroke:none;stroke-width:0.26458332;stroke-linecap:round;stroke-linejoin:round"
           inkscape:connector-curvature="0"
           d="m 71.04918,375.20527 c 0.23812,0.52917 0.87312,0.82021 1.48166,0.79375 0.58209,0 1.13771,-0.26458 1.69334,-0.50271 0.44979,2.46063 0.66145,4.94771 0.60854,7.4348 0,0.5027 -0.0529,1.03187 -0.39688,1.37583 -0.21166,0.18521 -0.47625,0.26458 -0.74083,0.34396 -1.56104,0.44979 -3.70417,0.42333 -4.31271,-1.08479 -0.52917,-1.27 0.47625,-2.77813 0.0265,-4.07459 -0.66146,-1.93146 1.00542,-4.07458 0.37042,-6.00604 0.21166,-0.39687 0.89958,-0.10583 1.03187,0.34396 0.15875,0.42333 0.0529,0.92604 0.23813,1.37583 m 2.19604,6.985 c 0.10583,-1.32291 0.0529,-2.67229 -0.15875,-3.96875 -0.0265,-0.21166 -0.0794,-0.44979 -0.21167,-0.635 -0.42333,-0.58208 -1.42875,-0.23812 -1.74625,0.39688 -0.3175,0.635 -0.23812,1.37583 -0.26458,2.09021 -0.0265,0.8202 -0.21167,1.69333 0.10583,2.46062 0.29104,0.76729 1.40229,1.27 1.95792,0.66146 0.23812,-0.26458 0.29104,-0.66146 0.3175,-1.00542"
           id="path18" />
        <path
           style="fill:#000000;stroke:none;stroke-width:0.26458332;stroke-linecap:round;stroke-linejoin:round"
           inkscape:connector-curvature="0"
           d="m 85.81293,382.93111 c -0.23813,0.39687 -0.92605,0.3175 -1.21709,-0.0529 -0.26458,-0.39688 -0.29104,-0.89958 -0.29104,-1.37583 0.0265,-1.48167 0.0529,-2.93688 0.0529,-4.39209 -0.3175,0.0529 -0.60854,0.0794 -0.92604,0.13229 -1.61396,0.26459 -3.54542,0.71438 -4.10105,2.27542 -0.58208,1.5875 0.68792,3.38667 0.1323,5.00063 -0.15875,0.44979 -0.66146,0.89958 -1.05834,0.60854 -0.21166,-0.13229 -0.26458,-0.44979 -0.29104,-0.71438 -0.26458,-2.67229 -0.50271,-5.34458 -0.76729,-8.01687 -0.0529,-0.47625 -0.0265,-1.08479 0.39687,-1.29646 0.37042,1.00542 1.19063,2.2225 2.16959,1.79917 1.82562,-0.7673 3.73062,-1.32292 5.68854,-1.69334 0.10583,2.56646 0.18521,5.15938 0.21167,7.72584"
           id="path20" />
        <path
           style="fill:#000000;stroke:none;stroke-width:0.26458332;stroke-linecap:round;stroke-linejoin:round"
           inkscape:connector-curvature="0"
           d="m 51.57584,379.20048 c -1.03187,0.26458 -2.03729,0.55563 -3.06916,0.84667 -0.50271,-0.68792 0.3175,-1.56104 1.08479,-1.93146 0.76729,-0.34396 1.74625,-0.87313 1.64041,-1.71979 -0.21166,-1.45521 -0.42333,-2.93688 -0.635,-4.39209 -0.1852,-1.50812 -0.15875,-3.46604 1.24355,-4.02166 0.21166,2.43416 0.44979,4.86833 0.66145,7.3025 0.0265,0.18521 0.0529,0.37041 0.15875,0.52916 0.26459,0.42334 0.89959,0.3175 1.37584,0.21167 0.47625,-0.10583 1.16416,-0.0265 1.24354,0.44979 0.0794,0.39688 -0.34396,0.71438 -0.74083,0.82021 -0.42334,0.10583 -0.84667,0.10583 -1.16417,0.34396 -0.42333,0.34396 -0.44979,0.9525 -0.42333,1.50812 0.0794,2.59292 0.15875,5.18584 0.23812,7.80521 -0.34396,0.15875 -0.68792,0.3175 -1.03187,0.44979 -0.60855,-2.67229 -0.79375,-5.45041 -0.58209,-8.20208"
           id="path22" />
        <path
           style="fill:#000000;stroke:none;stroke-width:0.26458332;stroke-linecap:round;stroke-linejoin:round"
           inkscape:connector-curvature="0"
           d="m 44.40563,381.37006 c -0.92604,1.5875 -1.53458,3.3073 -2.14312,5.02709 -1.34938,3.78354 -2.69875,7.56708 -4.02167,11.35062 -0.13229,0.34396 -0.26458,0.74084 -0.55562,0.97896 -0.29104,0.26458 -0.76729,0.34396 -1.03188,0.0794 -0.3175,-0.29105 -0.21166,-0.84667 -0.0529,-1.24355 1.98437,-5.3975 3.9952,-10.795 6.08541,-16.13958 0.52917,-1.29646 1.32292,-2.83104 2.72521,-2.8575 0.15875,1.00542 -0.47625,1.93146 -1.00542,2.80458"
           id="path24" />
        <path
           style="fill:#000000;stroke:none;stroke-width:0.26458332;stroke-linecap:round;stroke-linejoin:round"
           inkscape:connector-curvature="0"
           d="m 63.9848,378.03631 c -1.27,0.3175 -2.51354,0.60855 -3.75708,0.92605 -0.74084,0.1852 -1.66688,0.58208 -1.64042,1.34937 0.0529,1.905 0.13229,3.81 0.21167,5.68854 0,0.50271 0.0265,1.03188 -0.18521,1.48167 -0.21167,0.44979 -0.74083,0.82021 -1.21708,0.66146 -0.3175,-1.11125 -0.29105,-2.32834 -0.29105,-3.4925 0.0529,-5.95313 -0.44979,-11.90625 -1.48166,-17.75354 -0.0794,-0.55563 0.76729,-0.84667 1.21708,-0.50271 0.44979,0.37041 0.52917,0.97896 0.60854,1.56104 0.29104,3.04271 0.60854,6.11187 0.89959,9.15458 0.0529,0.44979 0.55562,0.71438 1.00541,0.71438 0.42334,-0.0265 0.84667,-0.23813 1.24354,-0.42334 1.45521,-0.68791 3.06917,-1.00541 4.68313,-0.92604 0.58208,4.1275 0.66146,8.33438 0.21167,12.48834 -0.79375,-0.1323 -1.00542,-1.16417 -1.05834,-1.98438 -0.15875,-2.98979 -0.3175,-5.95312 -0.44979,-8.94292"
           id="path26" />
        <path
           style="fill:#000000;stroke:none;stroke-width:0.26458332;stroke-linecap:round;stroke-linejoin:round"
           inkscape:connector-curvature="0"
           d="m 111.79501,383.85258 c 0.34396,-4.15395 0.68792,-8.30791 1.03187,-12.46187 0.0265,-0.39688 0.0794,-0.82021 0.3175,-1.16417 0.3175,-0.44979 0.92605,-0.58208 1.48167,-0.68791 3.38667,-0.60855 6.87917,-0.79375 10.31875,-0.52917 0.42333,0.26458 0.26458,0.97896 -0.15875,1.21708 -0.42333,0.26459 -0.97896,0.21167 -1.45521,0.15875 -2.77812,-0.23812 -5.58271,-0.0265 -8.255,0.635 -0.26458,0.0794 -0.52916,0.15875 -0.71437,0.37042 -0.13229,0.15875 -0.15875,0.42333 -0.18521,0.635 -0.18521,1.74625 -0.23813,3.4925 -0.18521,5.23875 0,0.26458 0.0265,0.60854 0.26458,0.76729 0.18521,0.10583 0.42334,0.10583 0.635,0.0794 1.69334,-0.21167 3.38667,-0.39688 5.08,-0.58209 1.05834,-0.10583 1.48167,1.32292 1.45521,2.40771 -0.0265,1.21708 -0.15875,2.46063 -0.39687,3.65125 -0.0794,0.50271 -0.18521,0.97896 -0.50271,1.37583 -0.3175,0.37042 -0.89958,0.55563 -1.32292,0.29105 -0.79375,-0.50271 -1.85208,-0.37042 -2.77812,-0.1323 -0.92604,0.26459 -1.85209,0.60854 -2.77813,0.52917 -0.9525,-0.10583 -1.93146,-0.84667 -1.85208,-1.79917 m 1.69333,-0.55562 c 0.0265,0.15875 0.0529,0.3175 0.15875,0.39687 0.10584,0.0529 0.23813,0.0529 0.34396,0.0529 1.32292,-0.0265 2.64583,-0.0265 3.99521,-0.0529 0.635,-0.0265 1.37583,-0.0794 1.71979,-0.635 0.18521,-0.3175 0.18521,-0.71437 0.18521,-1.11125 -0.0265,-0.92604 -0.0529,-1.82562 -0.0794,-2.75166 -2.03729,-0.13229 -4.07458,0.0794 -6.05895,0.58208 -0.34396,1.13771 -0.42334,2.35479 -0.26459,3.51896"
           id="path28" />
        <path
           style="fill:#000000;stroke:none;stroke-width:0.26458332;stroke-linecap:round;stroke-linejoin:round"
           inkscape:connector-curvature="0"
           d="m 96.63438,377.63488 c 0.47625,0.0265 0.66146,-0.58209 0.68792,-1.05834 0.10583,-1.13771 0.18521,-2.24896 0.26458,-3.38666 0.0265,-0.42334 0.0265,-0.92605 -0.3175,-1.16417 -0.29104,-0.23813 -0.71437,-0.13229 -1.05833,-0.0265 -2.24896,0.60854 -4.47146,1.24354 -6.69396,1.87854 -0.0529,-0.39687 -0.13229,-0.82021 -0.18521,-1.21708 2.61938,-1.27 5.50334,-2.03729 8.41375,-2.19604 0.39688,-0.0265 0.82021,-0.0265 1.05834,0.26458 0.21166,0.23813 0.21166,0.58208 0.21166,0.89958 -0.10583,3.4925 -0.1852,6.95855 -0.29104,10.45105 0,0.635 0.0529,1.4552 0.66146,1.71979 0.42333,0.23812 0.9525,0.0265 1.45521,0 0.47625,0 1.08479,0.39687 0.89958,0.84666 -1.34937,1.13771 -3.25437,1.27 -5.00062,1.37584 -2.69875,0.13229 -5.37104,0.29104 -8.06979,0.42333 -0.0265,-0.39688 -0.0794,-0.79375 -0.1323,-1.19062 2.64584,-0.39688 5.31813,-0.66146 8.01688,-0.7673 0.60854,-0.0265 0.79375,-0.84666 0.79375,-1.48166 -0.0265,-0.9525 -0.0265,-1.87854 -0.0265,-2.83104 0,-0.29105 -0.0265,-0.60855 -0.21167,-0.79375 -0.1852,-0.15875 -0.47625,-0.18521 -0.71437,-0.21167 -1.74625,-0.0529 -3.4925,0.21167 -5.13292,0.79375 -0.44979,0.15875 -0.92604,0.34396 -1.40229,0.34396 -0.50271,-0.0265 -1.00542,-0.3175 -1.08479,-0.79375 2.38125,-1.32292 5.13292,-1.95792 7.85812,-1.87854"
           id="path30" />
      </g>
      <flowRoot
         xml:space="preserve"
         id="flowRoot883"
         style="font-style:normal;font-weight:normal;font-size:40px;line-height:1.25;font-family:sans-serif;letter-spacing:0px;word-spacing:0px;fill:#000000;fill-opacity:1;stroke:none;stroke-linecap:round;stroke-linejoin:round"
         transform="matrix(0,-0.26458333,0.26458333,0,30.969555,362.8534)"><flowRegion
           id="flowRegion885"><rect
             id="rect887"
             width="312.5"
             height="46.25"
             x="485"
             y="-72.480316" /></flowRegion><flowPara
           id="flowPara889" /></flowRoot>    </g>
  </g>
</svg>
