<?xml version="1.0" encoding="UTF-8" standalone="no"?>
<!-- Created with Inkscape (http://www.inkscape.org/) -->

<svg
   xmlns:dc="http://purl.org/dc/elements/1.1/"
   xmlns:cc="http://creativecommons.org/ns#"
   xmlns:rdf="http://www.w3.org/1999/02/22-rdf-syntax-ns#"
   xmlns:svg="http://www.w3.org/2000/svg"
   xmlns="http://www.w3.org/2000/svg"
   xmlns:sodipodi="http://sodipodi.sourceforge.net/DTD/sodipodi-0.dtd"
   xmlns:inkscape="http://www.inkscape.org/namespaces/inkscape"
   width="210mm"
   height="80mm"
   viewBox="0 0 210 80"
   version="1.1"
   id="svg8"
   inkscape:version="0.92.3 (2405546, 2018-03-11)"
   sodipodi:docname="python_illustration.svg">
  <defs
     id="defs2" />
  <sodipodi:namedview
     id="base"
     pagecolor="#ffffff"
     bordercolor="#666666"
     borderopacity="1.0"
     inkscape:pageopacity="0.0"
     inkscape:pageshadow="2"
     inkscape:zoom="0.35"
     inkscape:cx="400"
     inkscape:cy="560"
     inkscape:document-units="mm"
     inkscape:current-layer="layer1"
     showgrid="false"
     units="mm"
     showguides="false"
     inkscape:window-width="1366"
     inkscape:window-height="705"
     inkscape:window-x="-8"
     inkscape:window-y="-8"
     inkscape:window-maximized="1" />
  <metadata
     id="metadata5">
    <rdf:RDF>
      <cc:Work
         rdf:about="">
        <dc:format>image/svg+xml</dc:format>
        <dc:type
           rdf:resource="http://purl.org/dc/dcmitype/StillImage" />
        <dc:title></dc:title>
      </cc:Work>
    </rdf:RDF>
  </metadata>
  <g
     inkscape:label="レイヤー 1"
     inkscape:groupmode="layer"
     id="layer1"
     transform="translate(0,-217)">
    <g
       id="layer1-0"
       inkscape:label="レイヤー 1"
       transform="translate(0.29090656,222.93293)">
      <g
         transform="matrix(0,-0.26458333,0.26458333,0,30.678648,139.92047)"
         id="g49"
         style="fill:none;stroke:#000000;stroke-linecap:round;stroke-linejoin:round">
        <rect
           ry="66.670067"
           transform="rotate(90)"
           y="-496.95132"
           x="145.539"
           height="181.82744"
           width="526.28943"
           id="rect867"
           style="fill:#ffff2e;fill-opacity:1;stroke:none;stroke-width:0.98253012;stroke-opacity:1" />
        <rect
           style="fill:#999994;fill-opacity:1;stroke:none;stroke-width:0.67916435;stroke-opacity:1"
           id="rect75"
           width="251.46799"
           height="181.82744"
           x="-105.92899"
           y="-496.95132"
           transform="rotate(90)"
           ry="56.584858" />
        <path
           style="opacity:0.98999999;fill:#ed0000;fill-opacity:1;stroke:none"
           inkscape:connector-curvature="0"
           d="m 439.73606,280.48168 c -2.1,2.3 -5.6,2.9 -8.7,2.6 -3.2,-0.3 -6.2,-1.4 -9.4,-1.6 -3.6,-0.3 -7.7,0.4 -10.5,-1.9 -1.9,-1.6 -2.6,-4.1 -3.2,-6.4 -1.6,-6.4 -3.3,-12.8 -4.9,-19.2 -0.6,-2.2 -1.3,-4.7 -3.3,-5.9 -2.1,-1.4 -4.8,-0.8 -7.3,-0.4 -9.2,1.8 -18.8,1.9 -28.1,0.3 -3.9,-0.7 -8.7,-3.1 -7.8,-7 12.2,1.2 24.5,1.6 36.7,1.4 2.1,-0.1 4.9,-1.7 3.6,-3.3 -2.3,-2.6 -2.7,-6.7 -0.9,-9.7 4.2,1.9 5.1,7.3 5.4,11.9 7.8,0.6 15.7,-0.2 23.2,-2.3 3.6,-1.1 7.6,-2.4 10.9,-0.7 -3.7,4.5 -1.9,11.1 0.1,16.5 1.4,4 2.9,8 4.3,11.9 1.7,4.6 3.2,10.2 -0.1,13.8 m -20.4,-5.2 c 4.2,0.3 8.4,0.6 12.6,0.9 1.7,0.2 3.8,0 4.3,-1.5 0.4,-0.8 0.1,-1.8 -0.2,-2.6 -2.4,-7.2 -4.9,-14.4 -7.3,-21.5 -0.5,-1.6 -1.1,-3.2 -2.4,-4.2 -1.7,-1.4 -4.3,-1.1 -6.5,-0.8 -3.6,0.5 -7.1,1 -10.6,1.5 -0.7,0.1 -1.5,0.2 -2,0.8 -0.6,0.7 -0.4,1.9 -0.1,2.8 2.1,6.6 4.1,13.3 6.2,19.9 0.4,1.3 0.8,2.7 1.9,3.6 1.1,0.9 2.6,1 4.1,1.1"
           id="PofPython"
           inkscape:label="#path12" />
        <path
           style="fill:#000000;stroke:none"
           inkscape:connector-curvature="0"
           d="m 393.81575,275.61061 c -0.4,5.1 -1.7,10 -4,14.5 -0.7,1.5 -1.7,3.1 -3.3,3.4 -3.7,-6.5 0.2,-15.9 7.3,-17.9"
           id="path14" />
        <path
           style="fill:#000000;stroke:none"
           inkscape:connector-curvature="0"
           d="m 383.533,539.31061 c -0.5,2.1 -2,3.9 -3.9,4.9 -4.1,2 -9.7,-0.6 -10.7,-5 -1,-4.4 2.8,-9.2 7.3,-9.2 4.6,0 8.4,4.9 7.3,9.3"
           id="path16" />
        <path
           style="fill:#000000;stroke:none"
           inkscape:connector-curvature="0"
           d="m 413.31575,402.91061 c -2,0.9 -3.1,3.3 -3,5.6 0,2.2 1,4.3 1.9,6.4 -9.3,1.7 -18.7,2.5 -28.1,2.3 -1.9,0 -3.9,-0.2 -5.2,-1.5 -0.7,-0.8 -1,-1.8 -1.3,-2.8 -1.7,-5.9 -1.6,-14 4.1,-16.3 4.8,-2 10.5,1.8 15.4,0.1 7.3,-2.5 15.4,3.8 22.7,1.4 1.5,0.8 0.4,3.4 -1.3,3.9 -1.6,0.6 -3.5,0.2 -5.2,0.9 m -26.4,8.3 c 5,0.4 10.1,0.2 15,-0.6 0.8,-0.1 1.7,-0.3 2.4,-0.8 2.2,-1.6 0.9,-5.4 -1.5,-6.6 -2.4,-1.2 -5.2,-0.9 -7.9,-1 -3.1,-0.1 -6.4,-0.8 -9.3,0.4 -2.9,1.1 -4.8,5.3 -2.5,7.4 1,0.9 2.5,1.1 3.8,1.2"
           id="path18" />
        <path
           style="fill:#000000;stroke:none"
           inkscape:connector-curvature="0"
           d="m 384.11575,458.71061 c -1.5,-0.9 -1.2,-3.5 0.2,-4.6 1.5,-1 3.4,-1.1 5.2,-1.1 5.6,0.1 11.1,0.2 16.6,0.2 -0.2,-1.2 -0.3,-2.3 -0.5,-3.5 -1,-6.1 -2.7,-13.4 -8.6,-15.5 -6,-2.2 -12.8,2.6 -18.9,0.5 -1.7,-0.6 -3.4,-2.5 -2.3,-4 0.5,-0.8 1.7,-1 2.7,-1.1 10.1,-1 20.2,-1.9 30.3,-2.9 1.8,-0.2 4.1,-0.1 4.9,1.5 -3.8,1.4 -8.4,4.5 -6.8,8.2 2.9,6.9 5,14.1 6.4,21.5 -9.7,0.4 -19.5,0.7 -29.2,0.8"
           id="path20" />
        <path
           style="fill:#000000;stroke:none"
           inkscape:connector-curvature="0"
           d="m 398.21575,329.31061 c -1,-3.9 -2.1,-7.7 -3.2,-11.6 2.6,-1.9 5.9,1.2 7.3,4.1 1.3,2.9 3.3,6.6 6.5,6.2 5.5,-0.8 11.1,-1.6 16.6,-2.4 5.7,-0.7 13.1,-0.6 15.2,4.7 -9.2,0.8 -18.4,1.7 -27.6,2.5 -0.7,0.1 -1.4,0.2 -2,0.6 -1.6,1 -1.2,3.4 -0.8,5.2 0.4,1.8 0.1,4.4 -1.7,4.7 -1.5,0.3 -2.7,-1.3 -3.1,-2.8 -0.4,-1.6 -0.4,-3.2 -1.3,-4.4 -1.3,-1.6 -3.6,-1.7 -5.7,-1.6 -9.8,0.3 -19.6,0.6 -29.5,0.9 -0.6,-1.3 -1.2,-2.6 -1.7,-3.9 10.1,-2.3 20.6,-3 31,-2.2"
           id="path22" />
        <path
           style="fill:#000000;stroke:none"
           inkscape:connector-curvature="0"
           d="m 390.01575,302.21061 c -6,-3.5 -12.5,-5.8 -19,-8.1 -14.3,-5.1 -28.6,-10.2 -42.9,-15.2 -1.3,-0.5 -2.8,-1 -3.7,-2.1 -1,-1.1 -1.3,-2.9 -0.3,-3.9 1.1,-1.2 3.2,-0.8 4.7,-0.2 20.4,7.5 40.8,15.1 61,23 4.9,2 10.7,5 10.8,10.3 -3.8,0.6 -7.3,-1.8 -10.6,-3.8"
           id="path24" />
        <path
           style="fill:#000000;stroke:none"
           inkscape:connector-curvature="0"
           d="m 402.61575,376.21061 c -1.2,-4.8 -2.3,-9.5 -3.5,-14.2 -0.7,-2.8 -2.2,-6.3 -5.1,-6.2 -7.2,0.2 -14.4,0.5 -21.5,0.8 -1.9,0 -3.9,0.1 -5.6,-0.7 -1.7,-0.8 -3.1,-2.8 -2.5,-4.6 4.2,-1.2 8.8,-1.1 13.2,-1.1 22.5,0.2 45,-1.7 67.1,-5.6 2.1,-0.3 3.2,2.9 1.9,4.6 -1.4,1.7 -3.7,2 -5.9,2.3 -11.5,1.1 -23.1,2.3 -34.6,3.4 -1.7,0.2 -2.7,2.1 -2.7,3.8 0.1,1.6 0.9,3.2 1.6,4.7 2.6,5.5 3.8,11.6 3.5,17.7 -15.6,2.2 -31.5,2.5 -47.2,0.8 0.5,-3 4.4,-3.8 7.5,-4 11.3,-0.6 22.5,-1.2 33.8,-1.7"
           id="path26" />
        <path
           style="fill:#000000;stroke:none"
           inkscape:connector-curvature="0"
           d="m 380.633,556.91061 c 15.7,1.3 31.4,2.6 47.1,3.9 1.5,0.1 3.1,0.3 4.4,1.2 1.7,1.2 2.2,3.5 2.6,5.6 2.3,12.8 3,26 2,39 -1,1.6 -3.7,1 -4.6,-0.6 -1,-1.6 -0.8,-3.7 -0.6,-5.5 0.9,-10.5 0.1,-21.1 -2.4,-31.2 -0.3,-1 -0.6,-2 -1.4,-2.7 -0.6,-0.5 -1.6,-0.6 -2.4,-0.7 -6.6,-0.7 -13.2,-0.9 -19.8,-0.7 -1,0 -2.3,0.1 -2.9,1 -0.4,0.7 -0.4,1.6 -0.3,2.4 0.8,6.4 1.5,12.8 2.2,19.2 0.4,4 -5,5.6 -9.1,5.5 -4.6,-0.1 -9.3,-0.6 -13.8,-1.5 -1.9,-0.3 -3.7,-0.7 -5.2,-1.9 -1.4,-1.2 -2.1,-3.4 -1.1,-5 1.9,-3 1.4,-7 0.5,-10.5 -1,-3.5 -2.3,-7 -2,-10.5 0.4,-3.6 3.2,-7.3 6.8,-7 m 2.1,6.4 c -0.6,0.1 -1.2,0.2 -1.5,0.6 -0.2,0.4 -0.2,0.9 -0.2,1.3 0.1,5 0.1,10 0.2,15.1 0.1,2.4 0.3,5.2 2.4,6.5 1.2,0.7 2.7,0.7 4.2,0.7 3.5,-0.1 6.9,-0.2 10.4,-0.3 0.5,-7.7 -0.3,-15.4 -2.2,-22.9 -4.3,-1.3 -8.9,-1.6 -13.3,-1"
           id="path28" />
        <path
           style="fill:#000000;stroke:none"
           inkscape:connector-curvature="0"
           d="m 404.133,499.61061 c -0.1,1.8 2.2,2.5 4,2.6 4.3,0.4 8.5,0.7 12.8,1 1.6,0.1 3.5,0.1 4.4,-1.2 0.9,-1.1 0.5,-2.7 0.1,-4 -2.3,-8.5 -4.7,-16.9 -7.1,-25.3 1.5,-0.2 3.1,-0.5 4.6,-0.7 4.8,9.9 7.7,20.8 8.3,31.8 0.1,1.5 0.1,3.1 -1,4 -0.9,0.8 -2.2,0.8 -3.4,0.8 -13.2,-0.4 -26.3,-0.7 -39.5,-1.1 -2.4,0 -5.5,0.2 -6.5,2.5 -0.9,1.6 -0.1,3.6 0,5.5 0,1.8 -1.5,4.1 -3.2,3.4 -4.3,-5.1 -4.8,-12.3 -5.2,-18.9 -0.5,-10.2 -1.1,-20.3 -1.6,-30.5 1.5,-0.1 3,-0.3 4.5,-0.5 1.5,10 2.5,20.1 2.9,30.3 0.1,2.3 3.2,3 5.6,3 3.6,-0.1 7.1,-0.1 10.7,-0.1 1.1,0 2.3,-0.1 3,-0.8 0.6,-0.7 0.7,-1.8 0.8,-2.7 0.2,-6.6 -0.8,-13.2 -3,-19.4 -0.6,-1.7 -1.3,-3.5 -1.3,-5.3 0.1,-1.9 1.2,-3.8 3,-4.1 5,9 7.4,19.4 7.1,29.7"
           id="path30" />
        <flowRoot
           transform="matrix(0,2.4610206,-2.4610206,0,770.71568,-398.14013)"
           style="font-style:normal;font-weight:normal;font-size:40px;line-height:1.25;font-family:sans-serif;letter-spacing:0px;word-spacing:0px;fill:#000000;fill-opacity:1;stroke:none"
           id="flowRoot871"
           xml:space="preserve"><flowRegion
             id="flowRegion873"><rect
               y="121.09111"
               x="127.14286"
               height="71.603218"
               width="201.89139"
               id="rect875" /></flowRegion><flowPara
             style="font-style:normal;font-variant:normal;font-weight:normal;font-stretch:normal;font-family:Sylfaen;-inkscape-font-specification:Sylfaen"
             id="flowPara879">Lang:</flowPara></flowRoot>        <flowRoot
           style="font-style:normal;font-weight:normal;font-size:40px;line-height:1.25;font-family:sans-serif;letter-spacing:0px;word-spacing:0px;fill:#000000;fill-opacity:1;stroke:none"
           id="flowRoot883"
           xml:space="preserve"><flowRegion
             id="flowRegion885"><rect
               y="-72.480316"
               x="485"
               height="46.25"
               width="312.5"
               id="rect887" /></flowRegion><flowPara
             id="flowPara889" /></flowRoot>      </g>
    </g>
  </g>
</svg>
